<svg width="64" height="64" viewBox="0 0 64 64" fill="none" xmlns="http://www.w3.org/2000/svg">
  <rect width="64" height="64" rx="16" fill="url(#gradient)"/>
  
  <!-- Feed lines representing posts -->
  <rect x="16" y="20" width="32" height="4" rx="2" fill="white" opacity="0.9"/>
  <rect x="16" y="28" width="24" height="4" rx="2" fill="white" opacity="0.7"/>
  <rect x="16" y="36" width="28" height="4" rx="2" fill="white" opacity="0.8"/>
  
  <!-- Photo/camera icon -->
  <circle cx="44" cy="40" r="8" fill="white" opacity="0.9"/>
  <circle cx="44" cy="40" r="5" fill="url(#gradient)"/>
  <circle cx="44" cy="40" r="2" fill="white"/>
  
  <!-- Heart/like icon -->
  <path d="M20 48C20 45 22 42 25 42C27 42 29 43 30 45C31 43 33 42 35 42C38 42 40 45 40 48C40 51 30 56 30 56C30 56 20 51 20 48Z" fill="white" opacity="0.8"/>
  
  <defs>
    <linearGradient id="gradient" x1="0" y1="0" x2="64" y2="64" gradientUnits="userSpaceOnUse">
      <stop stop-color="#6366F1"/>
      <stop offset="1" stop-color="#06B6D4"/>
    </linearGradient>
  </defs>
</svg>