<svg width="32" height="32" viewBox="0 0 32 32" fill="none" xmlns="http://www.w3.org/2000/svg">
  <rect width="32" height="32" rx="8" fill="url(#gradient)"/>
  
  <!-- Feed lines representing posts -->
  <rect x="8" y="10" width="16" height="2" rx="1" fill="white" opacity="0.9"/>
  <rect x="8" y="14" width="12" height="2" rx="1" fill="white" opacity="0.7"/>
  <rect x="8" y="18" width="14" height="2" rx="1" fill="white" opacity="0.8"/>
  
  <!-- Photo/camera icon -->
  <circle cx="22" cy="20" r="4" fill="white" opacity="0.9"/>
  <circle cx="22" cy="20" r="2.5" fill="url(#gradient)"/>
  <circle cx="22" cy="20" r="1" fill="white"/>
  
  <!-- Heart/like icon -->
  <path d="M10 24C10 22.5 11 21 12.5 21C13.5 21 14.5 21.5 15 22.5C15.5 21.5 16.5 21 17.5 21C19 21 20 22.5 20 24C20 25.5 15 28 15 28C15 28 10 25.5 10 24Z" fill="white" opacity="0.8"/>
  
  <defs>
    <linearGradient id="gradient" x1="0" y1="0" x2="32" y2="32" gradientUnits="userSpaceOnUse">
      <stop stop-color="#6366F1"/>
      <stop offset="1" stop-color="#06B6D4"/>
    </linearGradient>
  </defs>
</svg>